HIERARCHY
ROOT Hips
{
	OFFSET 0.000000 0.000000 0.000000
	CHANNELS 6 Xposition Yposition Zposition Zrotation Yrotation Xrotation 
	JOINT LHipJoint
	{
		OFFSET 0.000000 0.000000 0.000000
		CHANNELS 3 Zrotation Yrotation Xrotation
		JOINT LeftUpLeg
		{
			OFFSET 1.363060 -1.794630 0.839290
			CHANNELS 3 Zrotation Yrotation Xrotation
			JOINT LeftLeg
			{
				OFFSET 2.448110 -6.726130 0.000000
				CHANNELS 3 Zrotation Yrotation Xrotation
				JOINT LeftFoot
				{
					OFFSET 2.562200 -7.039590 0.000000
					CHANNELS 3 Zrotation Yrotation Xrotation
					JOINT LeftToeBase
					{
						OFFSET 0.157640 -0.433110 2.322550
						CHANNELS 3 Zrotation Yrotation Xrotation
						End Site
						{
							OFFSET 0.000000 0.000000 0.000000
						}
					}
				}
			}
		}
	}
	JOINT RHipJoint
	{
		OFFSET 0.000000 0.000000 0.000000
		CHANNELS 3 Zrotation Yrotation Xrotation
		JOINT RightUpLeg
		{
			OFFSET -1.305520 -1.794630 0.839290
			CHANNELS 3 Zrotation Yrotation Xrotation
			JOINT RightLeg
			{
				OFFSET -2.542530 -6.985550 0.000000
				CHANNELS 3 Zrotation Yrotation Xrotation
				JOINT RightFoot
				{
					OFFSET -2.568260 -7.056230 0.000000
					CHANNELS 3 Zrotation Yrotation Xrotation
					JOINT RightToeBase
					{
						OFFSET -0.164730 -0.452590 2.363150
						CHANNELS 3 Zrotation Yrotation Xrotation
						End Site
						{
							OFFSET 0.000000 0.000000 0.000000
						}
					}
				}
			}
		}
	}
	JOINT LowerBack
	{
		OFFSET 0.000000 0.000000 0.000000
		CHANNELS 3 Zrotation Yrotation Xrotation
		JOINT Spine
		{
			OFFSET 0.028270 2.035590 -0.193380
			CHANNELS 3 Zrotation Yrotation Xrotation
			JOINT Spine1
			{
				OFFSET 0.056720 2.048850 -0.042750
				CHANNELS 3 Zrotation Yrotation Xrotation
				JOINT Neck
				{
					OFFSET 0.000000 0.000000 0.000000
					CHANNELS 3 Zrotation Yrotation Xrotation
					JOINT Neck1
					{
						OFFSET -0.054170 1.746240 0.172020
						CHANNELS 3 Zrotation Yrotation Xrotation
						JOINT Head
						{
							OFFSET 0.104070 1.761360 -0.123970
							CHANNELS 3 Zrotation Yrotation Xrotation
							End Site
							{
								OFFSET 0.000000 0.000000 0.000000
							}
						}
					}
				}
				JOINT LeftShoulder
				{
					OFFSET 0.000000 0.000000 0.000000
					CHANNELS 3 Zrotation Yrotation Xrotation
					JOINT LeftArm
					{
						OFFSET 3.362410 1.200890 -0.311210
						CHANNELS 3 Zrotation Yrotation Xrotation
						JOINT LeftForeArm
						{
							OFFSET 4.983000 -0.000000 -0.000000
							CHANNELS 3 Zrotation Yrotation Xrotation
							JOINT LeftHand
							{
								OFFSET 3.483560 -0.000000 -0.000000
								CHANNELS 3 Zrotation Yrotation Xrotation
								JOINT LeftFingerBase
								{
									OFFSET 0.000000 0.000000 0.000000
									CHANNELS 3 Zrotation Yrotation Xrotation
									JOINT LeftHandIndex1
									{
										OFFSET 0.715260 -0.000000 -0.000000
										CHANNELS 3 Zrotation Yrotation Xrotation
										End Site
										{
											OFFSET 0.000000 0.000000 0.000000
										}
									}
								}
								JOINT LThumb
								{
									OFFSET 0.000000 0.000000 0.000000
									CHANNELS 3 Zrotation Yrotation Xrotation
									End Site
									{
										OFFSET 0.000000 0.000000 0.000000
									}
								}
							}
						}
					}
				}
				JOINT RightShoulder
				{
					OFFSET 0.000000 0.000000 0.000000
					CHANNELS 3 Zrotation Yrotation Xrotation
					JOINT RightArm
					{
						OFFSET -3.136600 1.374050 -0.404650
						CHANNELS 3 Zrotation Yrotation Xrotation
						JOINT RightForeArm
						{
							OFFSET -5.241900 -0.000000 -0.000000
							CHANNELS 3 Zrotation Yrotation Xrotation
							JOINT RightHand
							{
								OFFSET -3.444170 -0.000000 -0.000000
								CHANNELS 3 Zrotation Yrotation Xrotation
								JOINT RightFingerBase
								{
									OFFSET 0.000000 0.000000 0.000000
									CHANNELS 3 Zrotation Yrotation Xrotation
									JOINT RightHandIndex1
									{
										OFFSET -0.622530 -0.000000 -0.000000
										CHANNELS 3 Zrotation Yrotation Xrotation
										End Site
										{
											OFFSET 0.000000 0.000000 0.000000
										}
									}
								}
								JOINT RThumb
								{
									OFFSET 0.000000 0.000000 0.000000
									CHANNELS 3 Zrotation Yrotation Xrotation
									End Site
									{
										OFFSET 0.000000 0.000000 0.000000
									}
								}
							}
						}
					}
				}
			}
		}
	}
}
MOTION
Frames: 10
Frame Time: 0.008333
6.191079 16.893817 -7.244919 -174.357330 34.554865 -165.170930 -12.663000 5.891325 1.244009 -11.756468 11.656177 -7.077372 -0.222335 2.590587 40.135318 1.172078 -2.155916 24.419325 -1.711100 0.000000 -19.475100 7.879412 -0.865765 6.127433 6.393430 11.612620 -34.149115 3.211163 -0.388921 17.656411 1.496582 9.285016 2.396619 1.207200 -0.000001 -55.089700 5.837023 -7.273185 -9.083446 1.486924 -8.112009 -4.741443 -5.265881 -8.344460 -0.668635 9.232920 -20.894490 -7.741858 -2.967705 -0.240442 0.151914 0.000000 0.000000 0.000000 1.683115 -5.885309 -2.103980 -79.857412 -8.167546 18.496282 -1.249226 -85.356415 -0.164814 20.263183 -8.739860 -1.700030 -0.298793 0.645930 -0.000000 0.000000 0.000000 0.000000 0.000000 0.000000 0.000000 10.152904 -20.602464 0.333231 53.690937 -6.245034 -23.341651 0.144572 82.802600 -0.018030 -8.070086 11.418066 -0.847611 0.145952 -0.352533 0.000000 0.000000 0.000000 0.000000 0.000000 0.000000 0.000000 
6.287377 16.893855 -7.396577 -174.053029 34.062804 -165.162713 -12.782960 5.836223 1.013878 -11.258513 13.253858 -8.837996 -0.076374 2.684372 43.091600 1.450369 1.241656 24.254035 -0.105500 0.000000 -19.525500 7.895990 -0.979173 6.004628 7.179955 10.694216 -33.936752 3.228606 -0.484131 18.731379 1.501676 9.465352 1.996268 1.190600 -0.000000 -53.071200 6.088361 -7.107575 -8.993635 1.504788 -7.975761 -4.724806 -5.345041 -8.202219 -0.671936 9.282889 -20.689648 -7.763777 -2.982025 -0.241311 0.144324 0.000000 0.000000 0.000000 1.168948 -5.466191 -2.008421 -79.883062 -7.422790 18.508710 -1.230372 -84.841998 -0.161767 20.270481 -8.699730 -1.691079 -0.296632 0.634339 -0.000000 0.000000 0.000000 0.000000 0.000000 0.000000 0.000000 10.256706 -20.282353 0.269745 53.750806 -5.574026 -23.286176 0.138288 82.927166 -0.019499 -8.296367 11.608528 -0.885917 0.147280 -0.358794 0.000000 0.000000 0.000000 0.000000 0.000000 0.000000 0.000000 
6.380272 16.896858 -7.544262 -173.772315 33.564659 -165.158006 -12.871797 5.748208 0.801110 -10.875982 14.569880 -10.620307 0.048510 2.791898 45.995319 1.713477 4.580095 23.514075 1.464400 -0.000000 -19.449800 7.902101 -1.084715 5.873525 7.925700 9.803323 -33.639961 3.258811 -0.554387 19.642646 1.503148 9.650200 1.458663 1.154000 -0.000000 -51.093200 6.298761 -6.928163 -8.885732 1.508715 -7.820447 -4.701245 -5.436163 -8.039577 -0.666449 9.351326 -20.459433 -7.793305 -2.998492 -0.242231 0.134255 0.000000 0.000000 0.000000 0.665070 -4.978895 -1.911265 -79.862202 -6.659460 18.477619 -1.208717 -84.272923 -0.158364 20.290191 -8.660016 -1.683040 -0.294286 0.621233 0.000000 0.000000 0.000000 0.000000 0.000000 0.000000 0.000000 10.397030 -19.923521 0.202380 53.908501 -4.877583 -23.204896 0.134889 82.962412 -0.020983 -8.523926 11.807265 -0.925721 0.148424 -0.364783 0.000000 0.000000 0.000000 0.000000 0.000000 0.000000 0.000000 
6.470402 16.903006 -7.687574 -173.532613 33.044977 -165.164020 -12.928236 5.636472 0.610661 -10.613749 15.591951 -12.422261 0.158395 2.915217 48.816665 1.950001 7.638560 22.258662 2.822601 -0.000000 -19.186800 7.904980 -1.181593 5.739601 8.595323 8.966805 -33.250945 3.295255 -0.601036 20.376635 1.498353 9.814430 0.831264 1.099000 0.000000 -49.244000 6.450293 -6.741522 -8.764285 1.496157 -7.651075 -4.671269 -5.537425 -7.861669 -0.649924 9.439683 -20.207997 -7.830391 -3.016398 -0.243153 0.121805 0.000000 0.000000 0.000000 0.179408 -4.422606 -1.813701 -79.787561 -5.887379 18.407506 -1.185166 -83.649438 -0.154592 20.325620 -8.617019 -1.675407 -0.291857 0.606510 0.000000 0.000000 0.000000 0.000000 0.000000 0.000000 0.000000 10.574468 -19.532292 0.129572 54.160791 -4.162434 -23.082476 0.134103 82.912418 -0.022462 -8.748789 12.003836 -0.965822 0.149360 -0.370336 0.000000 0.000000 0.000000 0.000000 0.000000 0.000000 0.000000 
6.558196 16.912329 -7.826672 -173.336581 32.488941 -165.174093 -12.957294 5.507241 0.447119 -10.456743 16.323347 -14.254209 0.259538 3.052164 51.529891 2.150921 10.258394 20.575584 3.848700 -0.000000 -18.696400 7.905710 -1.270965 5.612907 9.172746 8.221966 -32.768040 3.333492 -0.624179 20.911815 1.483425 9.914262 0.168279 1.027000 -0.000000 -47.603800 6.545025 -6.550334 -8.642092 1.469085 -7.471349 -4.637717 -5.645178 -7.672531 -0.621895 9.542505 -19.944189 -7.873635 -3.034121 -0.243985 0.107477 0.000000 0.000000 0.000000 -0.289957 -3.808632 -1.716924 -79.653960 -5.105106 18.292436 -1.161066 -82.979860 -0.150461 20.378167 -8.569212 -1.667976 -0.289345 0.590195 0.000000 0.000000 0.000000 0.000000 0.000000 0.000000 0.000000 10.776129 -19.119814 0.051722 54.501673 -3.429063 -22.902269 0.135813 82.778987 -0.023915 -8.965663 12.190973 -1.005120 0.150083 -0.375419 -0.000000 0.000000 0.000000 0.000000 0.000000 0.000000 0.000000 
6.643981 16.924726 -7.961772 -173.188713 31.881747 -165.187267 -12.961608 5.365199 0.314615 -10.395869 16.770861 -16.114403 0.356235 3.197364 54.101938 2.310843 12.360604 18.570500 4.494600 -0.000000 -17.984400 7.908339 -1.352711 5.496991 9.646703 7.578000 -32.194321 3.368953 -0.625386 21.245504 1.455896 9.919886 -0.488204 0.942000 -0.000000 -46.230600 6.579450 -6.357970 -8.526045 1.427778 -7.284830 -4.602099 -5.757548 -7.476010 -0.581828 9.659119 -19.670218 -7.922273 -3.051177 -0.244706 0.091553 0.000000 0.000000 0.000000 -0.740599 -3.138776 -1.621080 -79.458087 -4.325099 18.137580 -1.137373 -82.263936 -0.145997 20.453070 -8.513668 -1.660545 -0.286913 0.572320 0.000000 0.000000 0.000000 0.000000 0.000000 0.000000 0.000000 10.999518 -18.689792 -0.031621 54.917291 -2.688521 -22.653970 0.139553 82.576101 -0.025333 -9.173319 12.359852 -1.042514 0.150629 -0.379953 -0.000000 0.000000 0.000000 0.000000 0.000000 0.000000 0.000000 
6.727878 16.939920 -8.093358 -173.087360 31.212063 -165.200528 -12.945647 5.212574 0.215945 -10.412239 16.949794 -17.998218 0.449892 3.344045 56.500641 2.427325 13.928069 16.338636 4.770200 -0.000000 -17.046800 7.913707 -1.427490 5.393933 10.020637 7.037691 -31.534983 3.398797 -0.606097 21.378065 1.413552 9.802832 -1.103672 0.848500 0.000001 -45.158300 6.559787 -6.165424 -8.422790 1.374478 -7.093609 -4.566326 -5.871777 -7.274527 -0.530695 9.785362 -19.388860 -7.974618 -3.066749 -0.245281 0.074555 0.000000 0.000000 0.000000 -1.174127 -2.420874 -1.526219 -79.198953 -3.553971 17.942071 -1.114995 -81.504966 -0.141229 20.553551 -8.449573 -1.653312 -0.284635 0.553000 0.000000 0.000000 0.000000 0.000000 0.000000 0.000000 0.000000 11.235564 -18.246185 -0.119687 55.391755 -1.949242 -22.329939 0.144889 82.318432 -0.026709 -9.369725 12.504560 -1.077103 0.151033 -0.383949 -0.000000 0.000000 0.000000 0.000000 0.000000 0.000000 0.000000 
6.809619 16.957547 -8.222253 -173.020040 30.472302 -165.206770 -12.915745 5.049557 0.152419 -10.479140 16.883137 -19.897308 0.539229 3.485544 58.696118 2.500674 14.987980 13.959366 4.724700 -0.000000 -15.876100 7.919250 -1.496952 5.303635 10.311148 6.596493 -30.794401 3.422327 -0.567604 21.312526 1.354630 9.540501 -1.652683 0.750299 -0.000000 -44.394701 6.501152 -5.971323 -8.337049 1.312998 -6.898090 -4.532392 -5.985071 -7.068809 -0.471358 9.914093 -19.105627 -8.027854 -3.079995 -0.245683 0.057296 0.000000 0.000000 0.000000 -1.595533 -1.673647 -1.432811 -78.877682 -2.788636 17.694821 -1.094647 -80.713540 -0.136189 20.678873 -8.379021 -1.646573 -0.282438 0.532444 0.000000 0.000000 0.000000 0.000000 0.000000 0.000000 0.000000 11.470325 -17.795848 -0.210314 55.908617 -1.214292 -21.923585 0.151522 82.018456 -0.028030 -9.552051 12.624190 -1.108488 0.151326 -0.387513 -0.000000 0.000000 0.000000 0.000000 0.000000 0.000000 0.000000 
6.889109 16.977198 -8.348984 -172.983757 29.660483 -165.211618 -12.874777 4.876477 0.123235 -10.576147 16.597501 -21.789457 0.620942 3.615958 60.657340 2.534509 15.604872 11.501211 4.432100 -0.000000 -14.504400 7.925362 -1.561649 5.219214 10.535412 6.225307 -29.975886 3.438979 -0.512340 21.066145 1.279282 9.134142 -2.125162 0.651600 -0.000000 -43.919399 6.411219 -5.775103 -8.264647 1.245061 -6.698145 -4.500165 -6.096036 -6.858900 -0.405338 10.043431 -18.810963 -8.080354 -3.091242 -0.245943 0.040161 0.000000 0.000000 0.000000 -2.003615 -0.890115 -1.339180 -78.499121 -2.052316 17.408386 -1.076734 -79.881628 -0.130893 20.831648 -8.302820 -1.640427 -0.280511 0.510848 0.000000 0.000000 0.000000 0.000000 0.000000 0.000000 0.000000 11.701431 -17.327991 -0.303307 56.444734 -0.505533 -21.441072 0.158612 81.705187 -0.029309 -9.719696 12.714591 -1.135968 0.151510 -0.390691 -0.000000 0.000000 0.000000 0.000000 0.000000 0.000000 0.000000 
6.965860 16.998371 -8.474294 -172.965819 28.780070 -165.216034 -12.827566 4.692567 0.126053 -10.677071 16.126897 -23.654908 0.690794 3.731066 62.361738 2.534829 15.860010 9.013473 3.970600 -0.000000 -12.940000 7.928950 -1.623271 5.133881 10.718835 5.895608 -29.080691 3.450519 -0.442145 20.653197 1.188443 8.593235 -2.517049 0.554800 -0.000000 -43.692000 6.305731 -5.573860 -8.201126 1.173980 -6.491963 -4.469930 -6.202759 -6.643125 -0.336106 10.167110 -18.500630 -8.129117 -3.100438 -0.246081 0.023922 0.000000 0.000000 0.000000 -2.400322 -0.078837 -1.244750 -78.069830 -1.350610 17.078961 -1.061630 -79.013540 -0.125363 21.007930 -8.225594 -1.635674 -0.278787 0.488488 0.000000 0.000000 0.000000 0.000000 0.000000 0.000000 0.000000 11.918390 -16.837554 -0.396887 56.980775 0.166236 -20.888417 0.165563 81.400137 -0.030547 -9.869189 12.777305 -1.159045 0.151557 -0.393644 -0.000000 0.000000 0.000000 0.000000 0.000000 0.000000 0.000000 
